<svg width="1425" height="849" viewBox="0 0 1425 849" fill="none" xmlns="http://www.w3.org/2000/svg">
<g clip-path="url(#clip0_17_214)">
<rect x="0.398438" width="1424" height="849" rx="21" fill="#1E1E1E"/>
<path d="M8.03319 847.236C-0.731015 702.857 35.1561 410.501 248.818 396.11C515.896 378.12 405.19 603.683 587.854 573.239C770.519 542.795 792.66 403.029 724.853 306.161C657.046 209.294 729.004 -12.1178 933.81 43.2351C1138.62 98.5879 1119.24 419.634 1271.46 343.524C1393.24 282.636 1422.76 81.0594 1422.3 -12.1179" stroke="black" stroke-width="40"/>
<path d="M-381.873 523.421C-390.637 379.042 -354.75 86.6869 -141.088 72.2952C125.99 54.3056 15.2843 279.869 197.949 249.424C380.613 218.98 402.754 79.2143 334.947 -17.6533C267.14 -114.521 339.098 -335.932 543.904 -280.579C748.71 -225.226 729.336 95.8201 881.557 19.7099C1003.33 -41.1782 1032.85 -242.755 1032.39 -335.932" stroke="black" stroke-width="40"/>
<path d="M306.597 1107.15C298.894 980.252 330.436 723.297 518.226 710.648C752.963 694.837 655.663 893.087 816.209 866.329C976.754 839.571 996.215 716.729 936.618 631.591C877.021 546.453 940.267 351.852 1120.27 400.503C1300.28 449.153 1283.25 731.324 1417.04 664.43C1524.07 610.915 1550.02 433.747 1549.61 351.852" stroke="black" stroke-width="40"/>
</g>
<defs>
<clipPath id="clip0_17_214">
<rect x="0.398438" width="1424" height="849" rx="21" fill="white"/>
</clipPath>
</defs>
</svg>
