<svg width="1406" height="787" viewBox="0 0 1406 787" fill="none" xmlns="http://www.w3.org/2000/svg">
<g clip-path="url(#clip0_11_118)">
<rect width="1406" height="787" rx="20" fill="#1E1E1E"/>
<path d="M1262.05 789.616C1193.21 547.437 1255.48 366.633 1295.22 306.503C1332.2 252.939 1369.04 124.661 1220.58 40.0648C1169.16 11.866 1095.46 -17.0712 1088.55 -18.1079" stroke="white" stroke-width="5"/>
<path d="M1362.36 794.441C1293.52 552.263 1355.79 371.458 1395.53 311.328C1432.51 257.764 1469.35 129.487 1320.89 44.8903C1269.47 16.6914 1195.77 -12.2458 1188.86 -13.2825" stroke="white" stroke-width="5"/>
<path d="M1392.86 794.441C1324.02 552.263 1386.29 371.458 1426.03 311.328C1463.01 257.764 1499.85 129.487 1351.39 44.8903C1299.97 16.6914 1226.27 -12.2458 1219.36 -13.2825" stroke="white" stroke-width="5"/>
<path d="M1408.94 794.441C1340.11 552.263 1402.38 371.458 1442.12 311.328C1479.1 257.764 1515.93 129.487 1367.48 44.8903C1316.05 16.6914 1242.36 -12.2458 1235.45 -13.2825" stroke="white" stroke-width="5"/>
<path d="M1427.68 794.441C1358.84 552.263 1421.11 371.458 1460.85 311.328C1497.83 257.764 1534.67 129.487 1386.21 44.8903C1334.79 16.6914 1261.09 -12.2458 1254.18 -13.2825" stroke="white" stroke-width="5"/>
<path d="M1418.03 794.441C1349.19 552.263 1411.46 371.458 1451.2 311.328C1488.18 257.764 1525.02 129.487 1376.56 44.8903C1325.14 16.6914 1251.44 -12.2458 1244.53 -13.2825" stroke="white" stroke-width="5"/>
<path d="M144.37 782.175C213.209 539.996 150.936 359.191 111.195 299.061C74.2187 245.497 37.3804 117.22 185.839 32.6236C237.261 4.42471 310.956 -24.5125 317.868 -25.5492" stroke="white" stroke-width="5"/>
<path d="M44.0595 787C112.898 544.821 50.6254 364.017 10.8843 303.887C-26.0921 250.323 -62.9304 122.046 85.5284 37.449C136.95 9.25015 210.645 -19.687 217.557 -20.7238" stroke="white" stroke-width="5"/>
<path d="M13.5595 787C82.3979 544.821 20.1254 364.017 -19.6157 303.887C-56.5921 250.323 -93.4304 122.046 55.0284 37.449C106.45 9.25015 180.145 -19.687 187.057 -20.7238" stroke="white" stroke-width="5"/>
<path d="M-2.52509 787C66.3133 544.821 4.04081 364.017 -35.7003 303.887C-72.6767 250.323 -109.515 122.046 38.9438 37.449C90.3653 9.25015 164.061 -19.687 170.972 -20.7238" stroke="white" stroke-width="5"/>
<path d="M-21.2595 787C47.579 544.821 -14.6936 364.017 -54.4346 303.887C-91.4111 250.323 -128.249 122.046 20.2094 37.449C71.6309 9.25015 145.326 -19.687 152.238 -20.7238" stroke="white" stroke-width="5"/>
<path d="M-11.6087 787C57.2297 544.821 -5.04281 364.017 -44.7839 303.887C-81.7603 250.323 -118.599 122.046 29.8602 37.449C81.2817 9.25015 154.977 -19.687 161.889 -20.7238" stroke="white" stroke-width="5"/>
</g>
<defs>
<clipPath id="clip0_11_118">
<rect width="1406" height="787" rx="20" fill="white"/>
</clipPath>
</defs>
</svg>
