<svg width="471" height="900" viewBox="0 0 471 900" fill="none" xmlns="http://www.w3.org/2000/svg">
<g clip-path="url(#clip0_35_149)">
<rect width="470" height="900" fill="url(#paint0_linear_35_149)"/>
<path d="M105.351 614V586.658H118.006C119.725 586.658 121.209 586.918 122.459 587.439C123.735 587.96 124.712 588.806 125.389 589.978C126.092 591.15 126.443 592.725 126.443 594.704C126.443 596.683 126.092 598.272 125.389 599.47C124.712 600.641 123.735 601.501 122.459 602.048C121.209 602.568 119.725 602.829 118.006 602.829H110.429V614H105.351ZM110.429 598.103H117.303C118.475 598.103 119.399 597.842 120.076 597.321C120.754 596.801 121.092 595.928 121.092 594.704C121.092 593.507 120.754 592.647 120.076 592.126C119.399 591.606 118.475 591.345 117.303 591.345H110.429V598.103ZM136.124 614.234C134.067 614.339 132.348 613.896 130.968 612.906C129.614 611.917 128.937 610.485 128.937 608.61C128.937 607.282 129.327 606.149 130.108 605.211C130.916 604.248 131.944 603.506 133.194 602.985C134.47 602.438 135.785 602.152 137.139 602.126C137.738 602.074 138.311 602.126 138.858 602.282C139.405 602.412 139.913 602.594 140.381 602.829V601.579C140.381 600.485 140.147 599.782 139.678 599.47C139.209 599.131 138.545 598.962 137.686 598.962C136.566 598.962 135.408 599.17 134.21 599.587C133.038 599.977 132.022 600.485 131.163 601.11L128.937 597.321C130.03 596.644 131.332 596.045 132.843 595.525C134.379 594.978 135.994 594.704 137.686 594.704C140.108 594.704 141.944 595.199 143.194 596.189C144.443 597.178 145.068 598.975 145.068 601.579V609.782C145.068 610.328 145.186 610.641 145.42 610.719C145.68 610.797 146.24 610.706 147.1 610.446V613.453C146.683 613.635 146.162 613.818 145.537 614C144.912 614.156 144.222 614.234 143.467 614.234C141.931 614.234 140.954 613.714 140.537 612.672C139.34 613.583 137.868 614.104 136.124 614.234ZM136.007 610.016C137.387 609.938 138.48 609.677 139.288 609.235C140.121 608.766 140.511 608.128 140.459 607.321C140.433 606.722 140.134 606.331 139.561 606.149C139.014 605.967 138.337 605.902 137.53 605.954C136.332 606.006 135.382 606.318 134.678 606.891C133.975 607.438 133.637 608.024 133.663 608.649C133.689 609.091 133.884 609.443 134.249 609.703C134.639 609.938 135.225 610.042 136.007 610.016ZM150.544 614V595.173H154.958L155.27 597.712C155.739 596.801 156.455 596.071 157.418 595.525C158.382 594.978 159.397 594.704 160.465 594.704C160.908 594.704 161.311 594.743 161.676 594.822C162.041 594.874 162.353 594.939 162.613 595.017V599.782C162.223 599.652 161.806 599.561 161.363 599.509C160.921 599.431 160.374 599.392 159.723 599.392C158.525 599.392 157.51 599.782 156.676 600.563C155.869 601.319 155.465 602.438 155.465 603.923V614H150.544ZM173.269 614.43C172.02 614.43 170.952 614.286 170.067 614C169.207 613.74 168.543 613.232 168.074 612.477C167.632 611.721 167.41 610.654 167.41 609.274V599.392H163.895V595.173H167.41V588.65H172.293V595.173H177.371V599.392H172.293V607.985C172.293 608.792 172.488 609.339 172.879 609.625C173.296 609.912 173.881 610.055 174.637 610.055C175.157 610.055 175.665 609.977 176.16 609.821C176.681 609.638 177.084 609.469 177.371 609.313V613.766C176.876 613.974 176.251 614.13 175.496 614.234C174.767 614.365 174.025 614.43 173.269 614.43ZM180.602 614V595.173H184.976L185.25 597.282C185.771 596.605 186.435 596.006 187.242 595.486C188.075 594.965 189.052 594.704 190.171 594.704C192.124 594.704 193.713 595.329 194.937 596.579C196.187 597.829 196.812 599.678 196.812 602.126V614H191.89V603.337C191.89 601.956 191.617 600.915 191.07 600.212C190.549 599.509 189.833 599.157 188.922 599.157C187.932 599.157 187.112 599.522 186.461 600.251C185.836 600.954 185.523 602.074 185.523 603.61V614H180.602ZM209.71 614.43C206.95 614.43 204.711 613.622 202.992 612.008C201.273 610.367 200.414 607.894 200.414 604.587C200.414 602.529 200.792 600.772 201.547 599.313C202.328 597.829 203.396 596.696 204.75 595.915C206.104 595.108 207.666 594.704 209.437 594.704C211.208 594.704 212.705 595.134 213.929 595.993C215.179 596.827 216.129 597.985 216.78 599.47C217.431 600.954 217.757 602.66 217.757 604.587V605.641H205.257C205.388 607.386 205.856 608.584 206.664 609.235C207.497 609.86 208.539 610.172 209.788 610.172C210.934 610.172 211.872 609.899 212.601 609.352C213.33 608.805 213.981 607.985 214.554 606.891L218.147 609.43C217.132 611.227 215.921 612.516 214.515 613.297C213.135 614.052 211.533 614.43 209.71 614.43ZM205.453 601.891H212.913C212.445 599.652 211.26 598.532 209.359 598.532C208.317 598.532 207.471 598.793 206.82 599.313C206.169 599.834 205.713 600.694 205.453 601.891ZM221.683 614V595.173H226.097L226.41 597.712C226.878 596.801 227.595 596.071 228.558 595.525C229.521 594.978 230.537 594.704 231.605 594.704C232.047 594.704 232.451 594.743 232.816 594.822C233.18 594.874 233.493 594.939 233.753 595.017V599.782C233.362 599.652 232.946 599.561 232.503 599.509C232.06 599.431 231.514 599.392 230.863 599.392C229.665 599.392 228.649 599.782 227.816 600.563C227.009 601.319 226.605 602.438 226.605 603.923V614H221.683ZM243.472 614.391C241.961 614.391 240.503 614.143 239.097 613.648C237.717 613.128 236.467 612.281 235.347 611.11L238.355 607.789C239.839 609.352 241.636 610.133 243.745 610.133C244.735 610.133 245.425 610.016 245.815 609.782C246.206 609.521 246.401 609.052 246.401 608.375C246.401 608.089 246.297 607.842 246.089 607.633C245.906 607.399 245.503 607.191 244.878 607.008C244.279 606.8 243.367 606.579 242.144 606.344C240.243 605.98 238.771 605.355 237.73 604.469C236.714 603.584 236.206 602.256 236.206 600.485C236.206 599.313 236.519 598.298 237.144 597.439C237.769 596.553 238.615 595.876 239.683 595.407C240.776 594.913 242 594.665 243.354 594.665C246.323 594.665 248.719 595.499 250.541 597.165L247.846 600.681C247.221 600.082 246.518 599.652 245.737 599.392C244.982 599.105 244.214 598.962 243.433 598.962C242.573 598.962 241.987 599.105 241.675 599.392C241.362 599.652 241.206 599.964 241.206 600.329C241.206 600.589 241.284 600.824 241.44 601.032C241.597 601.24 241.935 601.449 242.456 601.657C242.977 601.839 243.784 602.061 244.878 602.321C247.039 602.816 248.667 603.571 249.76 604.587C250.88 605.576 251.44 606.904 251.44 608.571C251.44 610.524 250.685 611.982 249.174 612.945C247.69 613.909 245.789 614.391 243.472 614.391ZM254.678 614V586.228H259.6V597.282C259.965 596.605 260.55 596.006 261.358 595.486C262.165 594.965 263.128 594.704 264.248 594.704C266.201 594.704 267.79 595.329 269.013 596.579C270.263 597.829 270.888 599.678 270.888 602.126V614H265.967V603.337C265.967 601.956 265.693 600.915 265.147 600.212C264.626 599.509 263.91 599.157 262.998 599.157C262.009 599.157 261.188 599.522 260.537 600.251C259.912 600.954 259.6 602.074 259.6 603.61V614H254.678ZM276.053 614V595.173H280.975V614H276.053ZM278.475 592.361C277.642 592.361 276.925 592.061 276.327 591.462C275.754 590.863 275.467 590.147 275.467 589.314C275.467 588.481 275.754 587.778 276.327 587.205C276.925 586.606 277.642 586.306 278.475 586.306C279.308 586.306 280.011 586.606 280.584 587.205C281.183 587.778 281.482 588.481 281.482 589.314C281.482 590.147 281.183 590.863 280.584 591.462C280.011 592.061 279.308 592.361 278.475 592.361ZM285.995 621.578V595.173H290.253L290.487 596.931C291.815 595.446 293.456 594.704 295.409 594.704C297.179 594.704 298.755 595.095 300.135 595.876C301.515 596.631 302.596 597.751 303.377 599.235C304.184 600.694 304.588 602.477 304.588 604.587C304.588 606.67 304.184 608.453 303.377 609.938C302.596 611.396 301.515 612.516 300.135 613.297C298.755 614.052 297.179 614.43 295.409 614.43C293.716 614.43 292.219 613.844 290.917 612.672V621.578H285.995ZM295.213 609.977C296.463 609.977 297.505 609.521 298.338 608.61C299.197 607.672 299.627 606.331 299.627 604.587C299.627 602.816 299.197 601.475 298.338 600.563C297.505 599.626 296.463 599.157 295.213 599.157C293.963 599.157 292.922 599.626 292.088 600.563C291.255 601.475 290.839 602.816 290.839 604.587C290.839 606.331 291.255 607.672 292.088 608.61C292.922 609.521 293.963 609.977 295.213 609.977ZM321.019 614V599.392H317.503V595.173H321.019V591.931C321.019 589.614 321.539 588.012 322.581 587.127C323.623 586.215 325.198 585.76 327.307 585.76C327.984 585.76 328.661 585.799 329.338 585.877C330.015 585.955 330.562 586.046 330.979 586.15V590.603C330.588 590.447 330.172 590.33 329.729 590.252C329.312 590.147 328.883 590.095 328.44 590.095C326.747 590.095 325.901 590.916 325.901 592.556V595.173H330.979V599.392H325.901V614H321.019ZM341.802 614.43C340.057 614.43 338.482 614.026 337.076 613.219C335.696 612.412 334.602 611.266 333.795 609.782C333.014 608.297 332.623 606.566 332.623 604.587C332.623 602.581 333.014 600.85 333.795 599.392C334.602 597.907 335.696 596.762 337.076 595.954C338.482 595.121 340.057 594.704 341.802 594.704C343.573 594.704 345.148 595.121 346.528 595.954C347.908 596.762 348.989 597.907 349.77 599.392C350.578 600.85 350.981 602.581 350.981 604.587C350.981 606.566 350.578 608.297 349.77 609.782C348.989 611.266 347.908 612.412 346.528 613.219C345.148 614.026 343.573 614.43 341.802 614.43ZM341.802 609.977C343.052 609.977 344.068 609.521 344.849 608.61C345.656 607.672 346.06 606.331 346.06 604.587C346.06 602.816 345.656 601.475 344.849 600.563C344.068 599.626 343.052 599.157 341.802 599.157C340.552 599.157 339.537 599.626 338.755 600.563C338 601.475 337.623 602.816 337.623 604.587C337.623 606.331 338 607.672 338.755 608.61C339.537 609.521 340.552 609.977 341.802 609.977ZM354.579 614V595.173H358.993L359.305 597.712C359.774 596.801 360.49 596.071 361.454 595.525C362.417 594.978 363.433 594.704 364.5 594.704C364.943 594.704 365.347 594.743 365.711 594.822C366.076 594.874 366.388 594.939 366.649 595.017V599.782C366.258 599.652 365.841 599.561 365.399 599.509C364.956 599.431 364.409 599.392 363.758 599.392C362.56 599.392 361.545 599.782 360.711 600.563C359.904 601.319 359.501 602.438 359.501 603.923V614H354.579ZM94.5941 660V632.658H106.507C107.94 632.658 109.229 632.918 110.374 633.439C111.546 633.96 112.471 634.741 113.148 635.783C113.851 636.798 114.202 638.061 114.202 639.572C114.202 641.186 113.838 642.527 113.109 643.595C112.405 644.662 111.507 645.366 110.413 645.704C111.325 645.834 112.145 646.212 112.874 646.837C113.629 647.436 114.228 648.23 114.671 649.219C115.114 650.209 115.335 651.329 115.335 652.579C115.335 655.157 114.554 657.044 112.991 658.242C111.455 659.414 109.411 660 106.859 660H94.5941ZM99.6719 655.313H106.156C107.38 655.313 108.304 655.039 108.929 654.493C109.554 653.946 109.867 653.073 109.867 651.876C109.867 650.73 109.502 649.883 108.773 649.337C108.044 648.764 107.171 648.477 106.156 648.477H99.6719V655.313ZM99.6719 643.751H105.492C107.601 643.751 108.656 642.631 108.656 640.392C108.656 639.376 108.369 638.621 107.796 638.126C107.25 637.606 106.481 637.345 105.492 637.345H99.6719V643.751ZM125.555 660.43C123.602 660.43 122 659.805 120.751 658.555C119.527 657.305 118.915 655.456 118.915 653.008V641.173H123.836V651.836C123.836 653.191 124.11 654.219 124.657 654.922C125.203 655.625 125.92 655.977 126.805 655.977C127.794 655.977 128.602 655.625 129.227 654.922C129.878 654.193 130.203 653.06 130.203 651.524V641.173H135.125V660H130.75L130.477 657.891C129.982 658.542 129.318 659.128 128.484 659.648C127.677 660.169 126.701 660.43 125.555 660.43ZM146.508 660.391C144.998 660.391 143.54 660.143 142.133 659.648C140.753 659.128 139.503 658.281 138.384 657.11L141.391 653.789C142.876 655.352 144.672 656.133 146.782 656.133C147.771 656.133 148.461 656.016 148.852 655.782C149.242 655.521 149.438 655.052 149.438 654.375C149.438 654.089 149.334 653.842 149.125 653.633C148.943 653.399 148.539 653.191 147.914 653.008C147.315 652.8 146.404 652.579 145.18 652.344C143.279 651.98 141.808 651.355 140.766 650.469C139.751 649.584 139.243 648.256 139.243 646.485C139.243 645.313 139.556 644.298 140.18 643.439C140.805 642.553 141.652 641.876 142.719 641.407C143.813 640.913 145.037 640.665 146.391 640.665C149.36 640.665 151.755 641.499 153.578 643.165L150.883 646.681C150.258 646.082 149.555 645.652 148.774 645.392C148.019 645.105 147.25 644.962 146.469 644.962C145.61 644.962 145.024 645.105 144.711 645.392C144.399 645.652 144.243 645.964 144.243 646.329C144.243 646.589 144.321 646.824 144.477 647.032C144.633 647.24 144.972 647.449 145.493 647.657C146.013 647.839 146.821 648.061 147.914 648.321C150.076 648.816 151.703 649.571 152.797 650.587C153.917 651.576 154.476 652.904 154.476 654.571C154.476 656.524 153.721 657.982 152.211 658.945C150.727 659.909 148.826 660.391 146.508 660.391ZM158.301 660V641.173H163.223V660H158.301ZM160.723 638.361C159.889 638.361 159.173 638.061 158.574 637.462C158.002 636.863 157.715 636.147 157.715 635.314C157.715 634.481 158.002 633.778 158.574 633.205C159.173 632.606 159.889 632.306 160.723 632.306C161.556 632.306 162.259 632.606 162.832 633.205C163.431 633.778 163.73 634.481 163.73 635.314C163.73 636.147 163.431 636.863 162.832 637.462C162.259 638.061 161.556 638.361 160.723 638.361ZM168.243 660V641.173H172.618L172.891 643.282C173.412 642.605 174.076 642.006 174.883 641.486C175.716 640.965 176.693 640.704 177.813 640.704C179.766 640.704 181.354 641.329 182.578 642.579C183.828 643.829 184.453 645.678 184.453 648.126V660H179.531V649.337C179.531 647.956 179.258 646.915 178.711 646.212C178.19 645.509 177.474 645.157 176.563 645.157C175.573 645.157 174.753 645.522 174.102 646.251C173.477 646.954 173.165 648.074 173.165 649.61V660H168.243ZM197.351 660.43C194.591 660.43 192.352 659.622 190.633 658.008C188.915 656.367 188.055 653.894 188.055 650.587C188.055 648.529 188.433 646.772 189.188 645.313C189.969 643.829 191.037 642.696 192.391 641.915C193.745 641.108 195.307 640.704 197.078 640.704C198.849 640.704 200.346 641.134 201.57 641.993C202.82 642.827 203.77 643.985 204.421 645.47C205.072 646.954 205.398 648.66 205.398 650.587V651.641H192.899C193.029 653.386 193.498 654.584 194.305 655.235C195.138 655.86 196.18 656.172 197.43 656.172C198.575 656.172 199.513 655.899 200.242 655.352C200.971 654.805 201.622 653.985 202.195 652.891L205.788 655.43C204.773 657.227 203.562 658.516 202.156 659.297C200.776 660.052 199.174 660.43 197.351 660.43ZM193.094 647.891H200.554C200.086 645.652 198.901 644.532 197 644.532C195.958 644.532 195.112 644.793 194.461 645.313C193.81 645.834 193.354 646.694 193.094 647.891ZM216.16 660.391C214.65 660.391 213.192 660.143 211.785 659.648C210.405 659.128 209.155 658.281 208.036 657.11L211.043 653.789C212.528 655.352 214.324 656.133 216.434 656.133C217.423 656.133 218.113 656.016 218.504 655.782C218.894 655.521 219.09 655.052 219.09 654.375C219.09 654.089 218.985 653.842 218.777 653.633C218.595 653.399 218.191 653.191 217.566 653.008C216.967 652.8 216.056 652.579 214.832 652.344C212.931 651.98 211.46 651.355 210.418 650.469C209.403 649.584 208.895 648.256 208.895 646.485C208.895 645.313 209.207 644.298 209.832 643.439C210.457 642.553 211.304 641.876 212.371 641.407C213.465 640.913 214.689 640.665 216.043 640.665C219.012 640.665 221.407 641.499 223.23 643.165L220.535 646.681C219.91 646.082 219.207 645.652 218.426 645.392C217.67 645.105 216.902 644.962 216.121 644.962C215.262 644.962 214.676 645.105 214.363 645.392C214.051 645.652 213.895 645.964 213.895 646.329C213.895 646.589 213.973 646.824 214.129 647.032C214.285 647.24 214.624 647.449 215.145 647.657C215.665 647.839 216.473 648.061 217.566 648.321C219.728 648.816 221.355 649.571 222.449 650.587C223.569 651.576 224.128 652.904 224.128 654.571C224.128 656.524 223.373 657.982 221.863 658.945C220.379 659.909 218.478 660.391 216.16 660.391ZM234.202 660.391C232.692 660.391 231.234 660.143 229.828 659.648C228.448 659.128 227.198 658.281 226.078 657.11L229.086 653.789C230.57 655.352 232.367 656.133 234.476 656.133C235.465 656.133 236.155 656.016 236.546 655.782C236.937 655.521 237.132 655.052 237.132 654.375C237.132 654.089 237.028 653.842 236.82 653.633C236.637 653.399 236.234 653.191 235.609 653.008C235.01 652.8 234.098 652.579 232.874 652.344C230.974 651.98 229.502 651.355 228.461 650.469C227.445 649.584 226.937 648.256 226.937 646.485C226.937 645.313 227.25 644.298 227.875 643.439C228.5 642.553 229.346 641.876 230.414 641.407C231.507 640.913 232.731 640.665 234.085 640.665C237.054 640.665 239.45 641.499 241.272 643.165L238.577 646.681C237.952 646.082 237.249 645.652 236.468 645.392C235.713 645.105 234.945 644.962 234.163 644.962C233.304 644.962 232.718 645.105 232.406 645.392C232.093 645.652 231.937 645.964 231.937 646.329C231.937 646.589 232.015 646.824 232.171 647.032C232.328 647.24 232.666 647.449 233.187 647.657C233.708 647.839 234.515 648.061 235.609 648.321C237.77 648.816 239.397 649.571 240.491 650.587C241.611 651.576 242.171 652.904 242.171 654.571C242.171 656.524 241.416 657.982 239.905 658.945C238.421 659.909 236.52 660.391 234.202 660.391ZM268.075 660.664C265.601 660.664 263.401 660.078 261.474 658.906C259.573 657.735 258.075 656.081 256.982 653.946C255.914 651.784 255.38 649.245 255.38 646.329C255.38 643.386 255.914 640.848 256.982 638.712C258.075 636.551 259.573 634.884 261.474 633.713C263.401 632.515 265.601 631.916 268.075 631.916C270.158 631.916 272.072 632.293 273.817 633.049C275.561 633.778 276.994 634.676 278.113 635.744L274.91 639.728C274.181 638.895 273.205 638.218 271.981 637.697C270.757 637.15 269.455 636.876 268.075 636.876C266.538 636.876 265.21 637.28 264.091 638.087C262.997 638.869 262.151 639.962 261.552 641.368C260.979 642.775 260.692 644.428 260.692 646.329C260.692 648.204 260.979 649.844 261.552 651.251C262.151 652.657 262.997 653.763 264.091 654.571C265.21 655.352 266.538 655.742 268.075 655.742C269.273 655.742 270.249 655.638 271.004 655.43C271.759 655.196 272.397 654.909 272.918 654.571V649.298H268.778V644.61H278.074V657.93C276.746 658.815 275.197 659.492 273.426 659.961C271.681 660.43 269.898 660.664 268.075 660.664ZM282.333 660V641.173H286.747L287.06 643.712C287.528 642.801 288.244 642.071 289.208 641.525C290.171 640.978 291.187 640.704 292.255 640.704C292.697 640.704 293.101 640.743 293.465 640.822C293.83 640.874 294.142 640.939 294.403 641.017V645.782C294.012 645.652 293.596 645.561 293.153 645.509C292.71 645.431 292.163 645.392 291.512 645.392C290.315 645.392 289.299 645.782 288.466 646.563C287.658 647.319 287.255 648.438 287.255 649.923V660H282.333ZM305.489 660.43C303.744 660.43 302.168 660.026 300.762 659.219C299.382 658.412 298.288 657.266 297.481 655.782C296.7 654.297 296.309 652.566 296.309 650.587C296.309 648.581 296.7 646.85 297.481 645.392C298.288 643.907 299.382 642.762 300.762 641.954C302.168 641.121 303.744 640.704 305.489 640.704C307.259 640.704 308.835 641.121 310.215 641.954C311.595 642.762 312.676 643.907 313.457 645.392C314.264 646.85 314.668 648.581 314.668 650.587C314.668 652.566 314.264 654.297 313.457 655.782C312.676 657.266 311.595 658.412 310.215 659.219C308.835 660.026 307.259 660.43 305.489 660.43ZM305.489 655.977C306.738 655.977 307.754 655.521 308.535 654.61C309.342 653.672 309.746 652.331 309.746 650.587C309.746 648.816 309.342 647.475 308.535 646.563C307.754 645.626 306.738 645.157 305.489 645.157C304.239 645.157 303.223 645.626 302.442 646.563C301.687 647.475 301.309 648.816 301.309 650.587C301.309 652.331 301.687 653.672 302.442 654.61C303.223 655.521 304.239 655.977 305.489 655.977ZM321.252 660L315.901 641.173H320.588L323.596 653.125L326.643 641.173H330.744L333.751 653.125L336.798 641.173H341.485L336.095 660H331.798L328.674 647.93L325.549 660H321.252ZM352.167 660.43C350.917 660.43 349.85 660.286 348.964 660C348.105 659.74 347.441 659.232 346.972 658.477C346.53 657.721 346.308 656.654 346.308 655.274V645.392H342.793V641.173H346.308V634.65H351.191V641.173H356.269V645.392H351.191V653.985C351.191 654.792 351.386 655.339 351.777 655.625C352.193 655.912 352.779 656.055 353.534 656.055C354.055 656.055 354.563 655.977 355.058 655.821C355.579 655.638 355.982 655.469 356.269 655.313V659.766C355.774 659.974 355.149 660.13 354.394 660.234C353.665 660.365 352.922 660.43 352.167 660.43ZM359.5 660V632.228H364.421V643.282C364.786 642.605 365.372 642.006 366.179 641.486C366.986 640.965 367.95 640.704 369.069 640.704C371.022 640.704 372.611 641.329 373.835 642.579C375.085 643.829 375.71 645.678 375.71 648.126V660H370.788V649.337C370.788 647.956 370.515 646.915 369.968 646.212C369.447 645.509 368.731 645.157 367.819 645.157C366.83 645.157 366.01 645.522 365.359 646.251C364.734 646.954 364.421 648.074 364.421 649.61V660H359.5Z" fill="#1E1E1E"/>
<path d="M108.193 720.725C109.907 725.868 111.269 753.256 125.33 758.442C134.678 761.888 142.466 766.156 151.892 760.156C159.123 755.553 158.841 745.404 157.033 742.155C152.748 734.44 146.057 732.589 134.361 728.089C120.223 723.074 111.483 715.745 111.483 703.53C111.483 690.029 122.665 680 139.502 680C148.37 680 179.739 702.253 183.594 704.439V715.582C180.767 714.039 146.331 692.326 139.116 689.258C130.471 685.58 117.378 687.852 116.761 698.438C115.905 713.011 128.063 714.331 140.016 718.959C154.668 724.617 162.122 731.689 162.122 744.418C162.122 757.79 152.226 769.362 131.79 769.362C123.436 769.362 112.82 768.385 108.193 765.299V720.725Z" fill="#F9FFA7"/>
<path d="M180.416 684.157C185.814 683.257 192.882 682.486 201.879 682.486C212.932 682.486 221.029 685.057 226.17 689.686C230.926 693.801 233.753 700.101 233.753 707.816C233.753 715.531 231.44 721.831 227.07 726.331C221.158 732.632 211.519 735.846 200.594 735.846C197.252 735.846 194.168 735.717 191.597 735.075V769.791H180.416V684.157ZM183.886 726.803C186.328 727.445 189.412 727.703 193.139 727.703C206.635 727.703 214.86 721.145 214.86 709.187C214.86 697.229 206.763 692.215 194.425 692.215C189.541 692.215 185.814 692.601 183.886 693.115V726.803Z" fill="#F9FFA7"/>
<path d="M306.969 726.417C306.969 756.247 288.847 772.063 266.741 772.063C244.635 772.063 227.798 754.319 227.798 728.089C227.798 700.573 244.892 682.572 268.026 682.572C291.161 682.572 306.969 700.701 306.969 726.417ZM234.147 727.583C234.147 746.098 249.956 757.585 267.564 757.585C285.172 757.585 301.837 747.255 301.837 727.583C301.837 710.353 287.057 700.153 268.42 700.153C249.784 700.153 234.147 708.553 234.147 727.583Z" fill="#F9FFA7"/>
<path d="M326.685 695.01L361.807 695.215V685.7L270.134 685.58L297.673 695.215H324.149V772.363L331.826 772.157L326.685 695.01Z" fill="#F9FFA7"/>
<mask id="mask0_35_149" style="mask-type:luminance" maskUnits="userSpaceOnUse" x="97" y="101" width="295" height="119">
<rect x="97.7788" y="101.994" width="293.531" height="117.413" fill="white"/>
</mask>
<g mask="url(#mask0_35_149)">
<path d="M120.128 153.058C121.842 158.201 123.204 185.588 137.265 190.774C146.613 194.22 154.402 198.489 163.827 192.488C171.058 187.885 170.776 177.736 168.968 174.487C164.684 166.773 157.992 164.921 146.296 160.421C132.158 155.406 123.419 148.077 123.419 135.862C123.419 122.361 134.6 112.332 151.437 112.332C160.305 112.332 191.674 134.585 195.53 136.771V147.914C192.702 146.371 158.266 124.659 151.051 121.59C142.406 117.913 129.314 120.184 128.697 130.77C127.84 145.343 139.998 146.663 151.951 151.292C166.603 156.949 174.057 164.021 174.057 176.75C174.057 190.123 164.161 201.695 143.726 201.695C135.371 201.695 124.755 200.717 120.128 197.632V153.058Z" fill="#1E1E1E"/>
<path d="M192.351 116.49C197.749 115.589 204.818 114.818 213.814 114.818C224.868 114.818 232.965 117.39 238.106 122.018C242.861 126.133 245.689 132.433 245.689 140.148C245.689 147.863 243.375 154.163 239.005 158.663C233.093 164.964 223.454 168.178 212.529 168.178C209.188 168.178 206.103 168.05 203.532 167.407V202.123H192.351V116.49ZM195.821 159.135C198.263 159.778 201.348 160.035 205.075 160.035C218.57 160.035 226.795 153.477 226.795 141.52C226.795 129.562 218.698 124.547 206.36 124.547C201.476 124.547 197.749 124.933 195.821 125.447V159.135Z" fill="#1E1E1E"/>
<path d="M318.905 158.749C318.905 188.58 300.783 204.395 278.676 204.395C256.57 204.395 239.733 186.651 239.733 160.421C239.733 132.905 256.827 114.904 279.962 114.904C303.096 114.904 318.905 133.034 318.905 158.749ZM246.082 159.915C246.082 178.431 261.891 189.917 279.499 189.917C297.107 189.917 313.772 179.588 313.772 159.915C313.772 142.686 298.992 132.485 280.356 132.485C261.72 132.485 246.082 140.885 246.082 159.915Z" fill="#1E1E1E"/>
<path d="M338.62 127.342L373.742 127.548V118.033L282.07 117.913L309.608 127.548H336.084V204.695L343.761 204.489L338.62 127.342Z" fill="#1E1E1E"/>
</g>
</g>
<defs>
<linearGradient id="paint0_linear_35_149" x1="0" y1="0" x2="0" y2="900" gradientUnits="userSpaceOnUse">
<stop stop-color="#F9FFA7"/>
<stop offset="0.485" stop-color="#1E1E1E"/>
</linearGradient>
<clipPath id="clip0_35_149">
<rect width="470.889" height="900" fill="white"/>
</clipPath>
</defs>
</svg>
