<svg width="552" height="201" viewBox="0 0 552 201" fill="none" xmlns="http://www.w3.org/2000/svg">
<path d="M0.0757446 88.1988C3.79884 99.3357 6.75871 158.64 37.3067 169.869C57.6162 177.331 74.5377 186.575 95.0148 173.582C110.726 163.614 110.112 141.637 106.184 134.603C96.8763 117.897 82.3376 113.888 56.9275 104.143C26.2119 93.2846 7.22409 77.4146 7.22409 50.9645C7.22409 21.7301 31.5173 0.0131836 68.0968 0.0131836C87.3638 0.0131836 155.515 48.1988 163.892 52.932V77.0619C157.749 73.7208 82.9333 26.7046 67.2591 20.0596C48.476 12.0967 20.0316 17.0155 18.6912 39.9389C16.8297 71.4935 43.2451 74.3519 69.2137 84.3751C101.046 96.6257 117.242 111.939 117.242 139.503C117.242 168.459 95.7408 193.517 51.3428 193.517C33.1927 193.517 10.1281 191.401 0.0757446 184.719V88.1988Z" fill="#F9FFA7"/>
<path d="M156.986 9.01549C168.714 7.06653 184.071 5.396 203.618 5.396C227.632 5.396 245.223 10.9644 256.392 20.9876C266.724 29.8972 272.867 43.5398 272.867 60.2452C272.867 76.9505 267.841 90.5932 258.347 100.338C245.502 113.981 224.56 120.941 200.825 120.941C193.565 120.941 186.864 120.663 181.279 119.271V194.445H156.986V9.01549ZM164.525 101.359C169.83 102.751 176.532 103.308 184.63 103.308C213.949 103.308 231.82 89.1083 231.82 63.215C231.82 37.3217 214.228 26.4633 187.422 26.4633C176.811 26.4633 168.714 27.2985 164.525 28.4122V101.359Z" fill="#F9FFA7"/>
<path d="M431.937 100.524C431.937 165.118 392.565 199.363 344.537 199.363C296.509 199.363 259.929 160.941 259.929 104.143C259.929 44.5607 297.067 5.58154 347.329 5.58154C397.591 5.58154 431.937 44.8391 431.937 100.524ZM273.724 103.048C273.724 143.141 308.069 168.013 346.324 168.013C384.579 168.013 420.786 145.646 420.786 103.048C420.786 65.7393 388.674 43.6511 348.186 43.6511C307.697 43.6511 273.724 61.8414 273.724 103.048Z" fill="#F9FFA7"/>
<path d="M474.771 32.5143L551.076 32.9598V12.3565L351.909 12.0967L411.739 32.9598H469.261V200.013L485.94 199.568L474.771 32.5143Z" fill="#F9FFA7"/>
<path d="M348.185 145.739C370.804 145.739 389.14 127.457 389.14 104.904C389.14 82.3514 370.804 64.0688 348.185 64.0688C325.567 64.0688 307.231 82.3514 307.231 104.904C307.231 127.457 325.567 145.739 348.185 145.739Z" fill="#F9FFA7"/>
</svg>
