<svg width="586" height="214" viewBox="0 0 586 214" fill="none" xmlns="http://www.w3.org/2000/svg">
<g clip-path="url(#clip0_11_108)">
<path d="M0.898438 94.754C4.85127 106.615 7.99378 169.774 40.4268 181.733C61.9895 189.68 79.9552 199.524 101.696 185.687C118.377 175.071 117.725 151.666 113.554 144.174C103.672 126.383 88.2364 122.113 61.2583 111.735C28.6474 100.17 8.48788 83.2689 8.48788 55.0995C8.48788 23.9649 34.2801 0.836365 73.1168 0.836365C93.5727 0.836365 165.929 52.154 174.823 57.1949V82.8933C168.301 79.335 88.8688 29.2627 72.2274 22.1858C52.2853 13.7053 22.0856 18.9438 20.6626 43.3573C18.6862 76.9629 46.7316 80.0071 74.3026 90.6818C108.099 103.729 125.294 120.037 125.294 149.393C125.294 180.231 102.467 206.918 55.329 206.918C36.0589 206.918 11.5711 204.664 0.898438 197.548V94.754Z" fill="#FFF9EE"/>
<path d="M167.491 10.4238C179.942 8.34819 196.248 6.56908 217 6.56908C242.496 6.56908 261.173 12.4995 273.031 23.1742C284.001 32.6628 290.523 47.1923 290.523 64.9835C290.523 82.7746 285.186 97.3041 275.107 107.682C261.469 122.212 239.235 129.625 214.035 129.625C206.327 129.625 199.212 129.328 193.283 127.846V207.906H167.491V10.4238ZM175.495 108.77C181.128 110.252 188.243 110.845 196.841 110.845C227.969 110.845 246.943 95.7227 246.943 68.1463C246.943 40.57 228.266 29.0057 199.805 29.0057C188.54 29.0057 179.942 29.8953 175.495 31.0814V108.77Z" fill="#FFF9EE"/>
<path d="M459.408 107.88C459.408 176.673 417.606 213.144 366.615 213.144C315.623 213.144 276.787 172.225 276.787 111.735C276.787 48.2795 316.216 6.76676 369.579 6.76676C422.943 6.76676 459.408 48.576 459.408 107.88ZM291.432 110.568C291.432 153.267 327.897 179.756 368.512 179.756C409.128 179.756 447.569 155.936 447.569 110.568C447.569 70.8348 413.476 47.3109 370.489 47.3109C327.502 47.3109 291.432 66.6835 291.432 110.568Z" fill="#FFF9EE"/>
<path d="M504.885 35.4501L585.898 35.9245V13.9821L374.441 13.7053L437.964 35.9245H499.035V213.836L516.744 213.362L504.885 35.4501Z" fill="#FFF9EE"/>
<path d="M370.489 156.035C394.503 156.035 413.97 136.564 413.97 112.545C413.97 88.5266 394.503 69.0557 370.489 69.0557C346.475 69.0557 327.007 88.5266 327.007 112.545C327.007 136.564 346.475 156.035 370.489 156.035Z" fill="#FFF9EE"/>
</g>
<defs>
<clipPath id="clip0_11_108">
<rect width="585" height="213" fill="white" transform="translate(0.898438 0.836365)"/>
</clipPath>
</defs>
</svg>
