<svg width="151" height="56" viewBox="0 0 151 56" fill="none" xmlns="http://www.w3.org/2000/svg">
<path d="M0.233826 24.773C1.24737 27.8149 2.05314 44.0132 10.3693 47.0805C15.8982 49.1186 20.5048 51.6434 26.0793 48.0944C30.3565 45.3719 30.1892 39.3692 29.1199 37.4477C26.5861 32.8848 22.6282 31.7897 15.7107 29.128C7.34893 26.1622 2.17984 21.8274 2.17984 14.6028C2.17984 6.61779 8.79324 0.686035 18.7513 0.686035C23.9965 0.686035 42.5494 13.8474 44.8299 15.1402V21.7311C43.1576 20.8185 22.7903 7.97652 18.5233 6.1615C13.4099 3.98652 5.66644 5.33004 5.30156 11.5913C4.79479 20.2101 11.9859 20.9909 19.0554 23.7286C27.7212 27.0747 32.1302 31.2574 32.1302 38.7861C32.1302 46.6952 26.2769 53.5395 14.1904 53.5395C9.24933 53.5395 2.9704 52.9615 0.233826 51.1364V24.773Z" fill="black"/>
<path d="M42.9498 3.14494C46.1425 2.6126 50.3234 2.15631 55.6445 2.15631C62.1819 2.15631 66.9709 3.67727 70.0116 6.41501C72.8242 8.84855 74.4965 12.5749 74.4965 17.1378C74.4965 21.7007 73.1282 25.427 70.5437 28.0887C67.0469 31.8151 61.3457 33.7163 54.8844 33.7163C52.9079 33.7163 51.0835 33.6402 49.5632 33.26V53.793H42.9498V3.14494ZM45.0023 28.3676C46.4466 28.7478 48.271 28.8999 50.4754 28.8999C58.4571 28.8999 63.3221 25.0215 63.3221 17.949C63.3221 10.8765 58.5331 7.91062 51.2356 7.91062C48.347 7.91062 46.1425 8.13876 45.0023 8.44296V28.3676Z" fill="black"/>
<path d="M117.8 28.1394C117.8 45.7826 107.082 55.1365 94.0072 55.1365C80.9325 55.1365 70.9744 44.6419 70.9744 29.128C70.9744 12.8537 81.0845 2.207 94.7674 2.207C108.45 2.207 117.8 12.9298 117.8 28.1394ZM74.7296 28.8289C74.7296 39.7798 84.0795 46.5735 94.4937 46.5735C104.908 46.5735 114.765 40.4643 114.765 28.8289C114.765 18.6385 106.023 12.6053 95.0005 12.6053C83.9782 12.6053 74.7296 17.5738 74.7296 28.8289Z" fill="black"/>
<path d="M129.461 9.56337L150.234 9.68505V4.05749L96.0141 3.98651L112.302 9.68505H127.961V55.3139L132.502 55.1922L129.461 9.56337Z" fill="black"/>
<path d="M95.0005 40.4896C101.158 40.4896 106.15 35.4959 106.15 29.3359C106.15 23.1759 101.158 18.1822 95.0005 18.1822C88.8431 18.1822 83.8515 23.1759 83.8515 29.3359C83.8515 35.4959 88.8431 40.4896 95.0005 40.4896Z" fill="black"/>
</svg>
