<svg width="12" height="20" viewBox="0 0 12 20" fill="none" xmlns="http://www.w3.org/2000/svg">
<path fill-rule="evenodd" clip-rule="evenodd" d="M11.138 0.46912C11.2863 0.609827 11.3697 0.800879 11.3697 1.00012C11.3697 1.19936 11.2863 1.39041 11.138 1.53112L2.23222 10.0001L11.138 18.4691C11.4463 18.7623 11.4464 19.2378 11.1381 19.531C10.8299 19.8243 10.33 19.8244 10.0216 19.5313L0.558935 10.5311C0.410623 10.3904 0.327271 10.1994 0.327271 10.0001C0.327271 9.80088 0.410623 9.60983 0.558935 9.46912L10.0214 0.46912C10.1694 0.328058 10.3702 0.248779 10.5797 0.248779C10.7892 0.248779 10.9901 0.328057 11.138 0.46912V0.46912Z" fill="#757575"/>
</svg>
